<?xml version="1.0" encoding="UTF-8" standalone="no"?>
<!-- Created with Inkscape (http://www.inkscape.org/) -->
<svg
   xmlns:svg="http://www.w3.org/2000/svg"
   xmlns="http://www.w3.org/2000/svg"
   version="1.0"
   width="55"
   height="86"
   id="svg2">
  <defs
     id="defs5" />
  <path
     d="M 47.584348,27.60836 C 47.584348,27.60836 47.004921,14.82312 32.421878,15.349342 C 19.107449,15.835161 13.388139,28.414875 13.872047,41.803013 C 14.355956,55.191151 18.622196,69.612404 34.196209,68.901895 C 46.162568,68.363331 49.681285,61.643266 49.681285,61.643266 L 49.681285,66.482352 C 49.681285,66.482352 46.656856,73.297399 32.905786,73.740982 C 19.79131,74.16403 3.1561126,62.926141 3.7099661,41.157801 C 4.448753,12.766158 29.175439,9.7746201 32.58318,9.8650439 C 41.896539,10.112172 49.842588,13.897616 49.842588,13.897616 L 50.003891,27.124451 L 47.584348,27.60836 z "
     style="fill:#000000;fill-rule:evenodd;stroke:#000000;stroke-width:1px;stroke-linecap:butt;stroke-linejoin:miter;stroke-opacity:1"
     id="path2170" />
  <rect
     width="5"
     height="81"
     x="29.034517"
     y="2.9999709"
     style="fill:#000000;fill-opacity:1;stroke:none;stroke-width:0.30000001;stroke-miterlimit:4;stroke-dasharray:none;stroke-opacity:1"
     id="rect3143" />
</svg>
